<svg xmlns="http://www.w3.org/2000/svg" xmlns:xlink="http://www.w3.org/1999/xlink" aria-hidden="true" role="img" class="iconify iconify--logos" width="35.93" height="32" preserveAspectRatio="xMidYMid meet" viewBox="0 0 256 228"><path fill="#00D8FF" d="M210.483 73.824a171.49 171.49 0 0 0-8.24-2.597c.465-1.9.893-3.777 1.273-5.621c9.253-45.424-17.894-82.184-47.252-82.184c-12.187 0-25.95 7.881-39.058 24.105c-3.18-1.1-6.466-2.216-9.86-3.349C98.093 5.265 89.098 1.104 80.917 1.104c-29.358 0-56.505 36.76-47.252 82.184c.38 1.844.808 3.721 1.273 5.621a171.404 171.404 0 0 0-8.24 2.597C10.688 89.058 0 113.486 0 140.234c0 53.054 42.996 96.05 96.05 96.05c53.054 0 96.05-42.996 96.05-96.05c0-26.748-10.688-51.176-28.617-66.41ZM76.255 97.257c-1.422.0-2.823-.082-4.173-.243c-2.363-.286-4.624-.72-6.779-1.296c-4.502-.713-8.537-1.855-12.059-3.351c-1.672-.713-3.216-1.528-4.632-2.418c-2.667-1.682-4.965-3.626-6.779-5.806c-1.137-1.365-2.095-2.854-2.854-4.444c-1.363-2.867-1.954-6.201-1.654-9.87c.0-1.182.082-2.34.243-3.455c.654-4.537 2.363-8.493 4.944-11.617c2.587-3.124 6.038-5.431 10.082-6.779c2.032-.677 4.224-.985 6.498-.985c2.274 0 4.466.308 6.498.985c4.044 1.348 7.495 3.655 10.082 6.779c2.581 3.124 4.29 7.08 4.944 11.617c.161 1.115.243 2.273.243 3.455c0 3.669-.591 7.003-1.654 9.87c-.759 1.59-1.717 3.079-2.854 4.444c-1.814 2.18-4.112 4.124-6.779 5.806c-1.416.89-2.96 1.705-4.632 2.418c-3.522 1.496-7.557 2.638-12.059 3.351c-2.155.576-4.416 1.01-6.779 1.296c-1.35.161-2.751.243-4.173.243Zm64.031 0c-1.422 0-2.823-.082-4.173-.243c-2.363-.286-4.624-.72-6.779-1.296c-4.502-.713-8.537-1.855-12.059-3.351c-1.672-.713-3.216-1.528-4.632-2.418c-2.667-1.682-4.965-3.626-6.779-5.806c-1.137-1.365-2.095-2.854-2.854-4.444c-1.363-2.867-1.954-6.201-1.654-9.87c0-1.182.082-2.34.243-3.455c.654-4.537 2.363-8.493 4.944-11.617c2.587-3.124 6.038-5.431 10.082-6.779c2.032-.677 4.224-.985 6.498-.985c2.274 0 4.466.308 6.498.985c4.044 1.348 7.495 3.655 10.082 6.779c2.581 3.124 4.29 7.08 4.944 11.617c.161 1.115.243 2.273.243 3.455c0 3.669-.591 7.003-1.654 9.87c-.759 1.59-1.717 3.079-2.854 4.444c-1.814 2.18-4.112 4.124-6.779 5.806c-1.416.89-2.96 1.705-4.632 2.418c-3.522 1.496-7.557 2.638-12.059 3.351c-2.155.576-4.416 1.01-6.779 1.296c-1.35.161-2.751.243-4.173.243Z"/><path fill="#00D8FF" d="M128.05 219.284c35.492 0 67.168-16.592 87.776-42.288c-20.608-25.696-52.284-42.288-87.776-42.288c-35.492 0-67.168 16.592-87.776 42.288c20.608 25.696 52.284 42.288 87.776 42.288Z"/><circle cx="128.05" cy="140.234" r="25.096" fill="#00D8FF"/></svg>